<?xml version="1.0" encoding="UTF-8"?>
<svg id="Layer_1" xmlns="http://www.w3.org/2000/svg" version="1.1" viewBox="0 0 1280.23 508.48">
  <!-- Generator: Adobe Illustrator 30.4.0, SVG Export Plug-In . SVG Version: 2.1.3 Build 135)  -->
  <defs>
    <style>
      .st0 {
        fill: #fff;
      }
    </style>
  </defs>
  <path class="st0" d="M201.44,0h-23.4v42.61H0v65.86h201.44V0ZM178.05,85.07H23.4v-19.21h154.65v19.21Z"/>
  <path class="st0" d="M418.35,0h-201.44v23.4h178.04v19.21h-178.04v65.86h201.44V0ZM394.95,85.07h-154.64v-19.21h154.64v19.21Z"/>
  <polygon class="st0" points="457.21 23.4 611.86 23.4 611.86 108.47 635.26 108.47 635.26 0 433.81 0 433.81 108.47 457.21 108.47 457.21 23.4"/>
  <polygon class="st0" points="674.12 23.4 828.76 23.4 828.76 108.47 852.16 108.47 852.16 0 650.72 0 650.72 108.47 674.12 108.47 674.12 23.4"/>
  <polygon class="st0" points="929.76 23.4 995.46 23.4 995.46 108.47 1018.71 108.47 1018.71 23.4 1084.4 23.4 1084.4 108.47 1107.81 108.47 1107.81 0 906.36 0 906.36 108.47 929.76 108.47 929.76 23.4"/>
  <rect class="st0" x="1127.14" width="23.24" height="108.47"/>
  <polygon class="st0" points="1280.23 68.49 1280.23 45.09 1191.13 45.09 1191.13 0 1167.73 0 1167.73 108.47 1280.23 108.47 1280.23 85.07 1191.13 85.07 1191.13 68.49 1280.23 68.49"/>
  <path class="st0" d="M1107.02,294.05c6.55,0,12.93-.81,19.11-2.46,6.18-1.64,11.74-4.29,16.66-7.95,4.93-3.66,8.89-8.52,11.93-14.57,3.02-6.06,4.54-13.63,4.54-22.71,0-15.64-3.72-27.51-11.17-35.58-7.44-8.08-18.99-12.11-34.64-12.11h-55.26v40.51c0,19.68,3.72,33.75,11.17,42.2,7.44,8.46,19.87,12.68,37.28,12.68h.38Z"/>
  <path class="st0" d="M0,508.48h1280.23V134.52H0v373.96ZM1023.37,421.24c4.54,0,8.76-.57,12.68-1.7,3.91-1.13,5.87-3.84,5.87-8.14v-65.86c0-4.54.75-9.34,2.26-14.38,1.52-5.05,3.91-9.85,7.19-14.39,3.28-4.54,7.57-8.7,12.87-12.49,5.3-3.79,11.86-6.56,19.69-8.33-7.83-1.76-14.39-4.54-19.69-8.33-5.3-3.78-9.59-7.95-12.87-12.49-3.28-4.54-5.67-9.33-7.19-14.38-1.51-5.05-2.26-9.84-2.26-14.38v-39.75c0-4.28-1.96-7-5.87-8.14-3.92-1.13-8.14-1.7-12.68-1.7v-2.27h95.76c9.59,0,17.98,1.32,25.17,3.97,7.19,2.65,13.25,6.38,18.17,11.17,4.93,4.79,8.65,10.28,11.17,16.47,2.52,6.19,3.79,12.93,3.79,20.25,0,7.82-1.7,14.89-5.11,21.19-3.4,6.31-7.95,11.73-13.63,16.28-5.67,4.54-12.23,8.01-19.68,10.41-7.44,2.4-15.2,3.6-23.28,3.6h-.75c-.52,0-1.09.07-1.71.19-.63.13-1.2.19-1.7.19l73.44,112.42c2.78,4.04,5.73,6.82,8.89,8.33,3.16,1.51,7,2.27,11.55,2.27v2.27h-55.65v-2.27c6.31,0,11.17-.69,14.57-2.08,3.4-1.38,3.72-4.22.95-8.52l-71.55-110.15c-11.1,2.78-19.82,8.4-26.11,16.85-6.32,8.46-9.47,20.25-9.47,35.39v58.67c0,4.3,2.02,7.01,6.05,8.14,4.03,1.14,8.33,1.7,12.87,1.7v2.27h-53.75v-2.27ZM823.89,194.5h53.75v2.27c-4.54,0-8.84.57-12.87,1.7-4.03,1.14-6.05,3.85-6.05,8.14v151.41c0,10.1,1.64,18.99,4.92,26.69,3.28,7.7,7.76,14.19,13.44,19.49,5.67,5.3,12.3,9.27,19.87,11.92,7.57,2.65,15.64,3.98,24.22,3.98s16.66-1.64,24.23-4.92c7.57-3.28,14.19-7.7,19.87-13.25s10.16-12.11,13.44-19.69c3.27-7.57,4.92-15.64,4.92-24.22v-151.41c0-4.28-1.96-7-5.87-8.14-3.91-1.13-8.13-1.7-12.68-1.7v-2.27h42.78v2.27c-4.55,0-8.77.57-12.68,1.7-3.92,1.14-5.87,3.85-5.87,8.14v144.98c0,10.1-1.58,19.63-4.73,28.58-3.16,8.96-7.9,16.72-14.2,23.28-6.31,6.56-14,11.8-23.09,15.71-9.09,3.92-19.56,5.86-31.42,5.86-10.09,0-19.63-1.51-28.58-4.54-8.96-3.02-16.72-7.63-23.28-13.81-6.56-6.18-11.81-13.88-15.72-23.09-3.91-9.21-5.86-19.87-5.86-31.99v-144.98c0-4.28-1.96-7-5.87-8.14-3.92-1.13-8.14-1.7-12.68-1.7v-2.27ZM644.09,194.5h152.93l11.35,60.56h-3.41c-4.03-12.11-7.31-21.89-9.83-29.34-2.53-7.44-5.37-13.12-8.52-17.03-3.16-3.91-7.38-6.56-12.68-7.95-5.3-1.38-12.75-2.08-22.32-2.08h-23.1v212.73c0,4.3,1.95,7.01,5.87,8.14,3.91,1.14,8.14,1.7,12.68,1.7v2.27h-53.75v-2.27c4.78,0,9.14-.57,13.05-1.7,3.91-1.13,5.87-3.84,5.87-8.14v-212.73h-22.71c-9.6,0-16.98.7-22.15,2.08-5.18,1.39-9.41,4.04-12.68,7.95-3.28,3.92-6.13,9.59-8.52,17.03-2.4,7.45-5.74,17.22-10.03,29.34h-3.41l11.36-60.56ZM471.86,421.24c4.54,0,8.76-.57,12.68-1.7,3.91-1.13,5.87-3.84,5.87-8.14v-204.79c0-4.28-1.96-7-5.87-8.14-3.92-1.13-8.14-1.7-12.68-1.7v-2.27h53.75v2.27c-4.54,0-8.84.57-12.87,1.7-4.03,1.14-6.05,3.85-6.05,8.14v212.74h53.75c9.59,0,17.04-.7,22.34-2.08,5.3-1.38,9.52-4.03,12.68-7.95,3.15-3.91,5.99-9.53,8.51-16.85,2.52-7.31,5.8-17.03,9.85-29.15h3.41l-11.36,60.19h-134v-2.27ZM272.38,194.5h53.75v2.27c-4.54,0-8.84.57-12.87,1.7-4.04,1.14-6.06,3.85-6.06,8.14v151.41c0,10.1,1.64,18.99,4.92,26.69,3.28,7.7,7.76,14.19,13.44,19.49,5.68,5.3,12.31,9.27,19.87,11.92,7.57,2.65,15.65,3.98,24.23,3.98s16.65-1.64,24.22-4.92c7.57-3.28,14.2-7.7,19.87-13.25,5.68-5.55,10.15-12.11,13.44-19.69,3.28-7.57,4.92-15.64,4.92-24.22v-151.41c0-4.28-1.95-7-5.86-8.14-3.91-1.13-8.14-1.7-12.68-1.7v-2.27h42.77v2.27c-4.55,0-8.78.57-12.69,1.7-3.92,1.14-5.86,3.85-5.86,8.14v144.98c0,10.1-1.58,19.63-4.73,28.58-3.16,8.96-7.89,16.72-14.19,23.28-6.31,6.56-14.01,11.8-23.09,15.71-9.09,3.92-19.56,5.86-31.42,5.86-10.1,0-19.63-1.51-28.58-4.54-8.96-3.02-16.72-7.63-23.28-13.81-6.57-6.18-11.8-13.88-15.71-23.09-3.92-9.21-5.87-19.87-5.87-31.99v-144.98c0-4.28-1.96-7-5.86-8.14-3.92-1.13-8.14-1.7-12.68-1.7v-2.27ZM74.79,421.24c4.54,0,8.77-.57,12.68-1.7,3.91-1.13,5.86-3.84,5.86-8.14v-204.79c0-4.28-1.96-7-5.86-8.14-3.92-1.13-8.14-1.7-12.68-1.7v-2.27h53.75v2.27c-4.54,0-8.84.57-12.87,1.7-4.04,1.14-6.06,3.85-6.06,8.14v114.69l92.36-109.39c1.51-2.02,2.65-3.91,3.41-5.68.76-1.76.76-3.34,0-4.73-.76-1.38-2.34-2.52-4.73-3.41-2.4-.88-5.86-1.33-10.41-1.33v-2.27h44.29v2.27c-4.54,0-9.08,1.2-13.63,3.6-4.54,2.4-8.58,5.62-12.11,9.66l-80.62,95.76h40.12l84.41,129.84c2.77,4.03,5.73,6.81,8.89,8.33,3.15,1.51,7.01,2.27,11.55,2.27v2.27h-12.11c-6.05,0-11.73-1.46-17.03-4.36-5.3-2.9-9.59-6.88-12.87-11.92l-79.87-122.26h-26.5l-15.14,17.79v83.65c0,4.3,2.02,7.01,6.06,8.14,4.03,1.14,8.33,1.7,12.87,1.7v2.27h-53.75v-2.27Z"/>
</svg>