<?xml version="1.0" encoding="UTF-8"?>
<svg id="Layer_1" xmlns="http://www.w3.org/2000/svg" version="1.1" viewBox="0 0 754.33 142.75">
  <!-- Generator: Adobe Illustrator 30.4.0, SVG Export Plug-In . SVG Version: 2.1.3 Build 135)  -->
  <defs>
    <style>
      .st0 {
        fill: #f8971d;
      }
    </style>
  </defs>
  <path class="st0" d="M695.98,55.06c0-17.54-5.78-31-17.33-40.38-11.83-9.79-28.96-14.68-51.39-14.68h-202.16l-48.94,61.18L327.21,0h-53.32v76.47L212.71,0h-61.81v65.26L101.96,4.08l-48.94,61.18V0H0v142.75h53.02l48.94-61.18,48.94,61.18h53.65v-76.47l61.18,76.47h61.47v-65.26l48.94,61.18,48.94-61.18v65.26h54.84v-32.63h139.17l21.82,32.63h55.06l-27.33-40.79c18.22-9.11,27.33-24.74,27.33-46.9ZM629.09,65.26h-149.16v-20.39h149.16c9.24,0,13.87,3.4,13.87,10.2s-4.62,10.2-13.87,10.2Z"/>
  <rect class="st0" x="709.78" y="1.01" width="44.56" height="44.56"/>
</svg>